<svg viewBox="0 0 1024 1024" xmlns="http://www.w3.org/2000/svg"><path d="M527.36 875.52c-10.24 0-15.36 0-20.48-5.12l-209.92-153.6H122.88c-20.48 0-40.96-15.36-40.96-40.96V343.04c0-20.48 20.48-35.84 40.96-35.84h174.08l209.92-148.48c10.24-10.24 25.6-10.24 40.96-5.12 10.24 10.24 15.36 20.48 15.36 35.84v645.12c0 15.36-10.24 25.6-20.48 35.84-5.12 0-10.24 5.12-15.36 5.12z m-368.64-235.52H307.2c10.24 0 15.36 0 20.48 5.12l158.72 112.64V261.12l-153.6 112.64c-10.24 5.12-15.36 10.24-25.6 10.24H158.72v256z"/><path d="M527.36 875.52c-10.24 0-15.36 0-20.48-5.12l-209.92-153.6H122.88c-20.48 0-40.96-15.36-40.96-40.96V343.04c0-20.48 20.48-35.84 40.96-35.84h174.08l209.92-148.48c10.24-10.24 25.6-10.24 40.96-5.12 10.24 10.24 15.36 20.48 15.36 35.84v645.12c0 15.36-10.24 25.6-20.48 35.84-5.12 0-10.24 5.12-15.36 5.12z m-368.64-235.52H307.2c10.24 0 15.36 0 20.48 5.12l158.72 112.64V261.12l-153.6 112.64c-10.24 5.12-15.36 10.24-25.6 10.24H158.72v256zM680.96 716.8c-10.24 0-25.6-5.12-30.72-15.36-10.24-15.36-10.24-40.96 10.24-51.2 46.08-30.72 71.68-81.92 71.68-138.24s-25.6-107.52-71.68-138.24c-15.36-10.24-20.48-35.84-10.24-51.2 10.24-15.36 35.84-20.48 51.2-10.24 66.56 46.08 107.52 122.88 107.52 199.68s-35.84 153.6-102.4 199.68c-10.24 0-15.36 5.12-25.6 5.12z"/><path d="M768 819.2c-10.24 0-25.6-5.12-30.72-15.36-10.24-15.36-10.24-40.96 5.12-51.2 76.8-56.32 122.88-143.36 122.88-240.64 0-97.28-40.96-184.32-117.76-240.64-15.36-15.36-20.48-35.84-5.12-56.32 15.36-15.36 35.84-20.48 56.32-5.12 97.28 71.68 148.48 184.32 148.48 302.08 0 117.76-56.32 230.4-153.6 302.08-10.24 5.12-20.48 5.12-25.6 5.12z"/></svg>
