<svg xmlns="http://www.w3.org/2000/svg" data="images/浅色模式/u50.svg" class="img generatedImage">

  <defs>
    <pattern id="u50_img_bgp" patternUnits="userSpaceOnUse" alignment="0 0" imageRepeat="None" />
    <mask fill="white" id="u50_img_cl3463">
      <path d="M 0 12.99999999999999  C 0 12.99999999999999  0 2.0000000000000364  0 2.0000000000000364  C 0 0.8954305003384424  0.794326616476102 0  1.7741781549230478 0  C 1.7741781549230478 0  12.225821845076927 0  12.225821845076927 0  C 13.20567338352386 0  13.999999999999988 0.8954305003384424  13.999999999999988 2.0000000000000364  C 13.999999999999988 2.0000000000000364  14 12.99999999999999  14 12.99999999999999  C 14 14.104569499661583  13.205673383523873 15  12.22582184507694 15  C 12.22582184507694 15  1.7741781549230726 15  1.7741781549230726 15  C 0.7943266164761269 15  0 14.104569499661583  0 12.99999999999999  Z M 1.4385673274017083 8.259695497735557  C 1.4385673274017083 8.259695497735557  2.865332658610491 10.013950510195428  2.865332658610491 10.013950510195428  C 2.865332658610491 10.013950510195428  2.9810166394453557 10.313452571780928  3.328057284686219 10.013937975057047  C 3.328057284686219 10.013937975057047  3.4437412655210835 9.971155547727218  3.4437412655210835 9.971155547727218  C 3.7907932080256774 9.671653486141743  4.253529131365148 9.500498706545713  4.716265054704619 9.500498706545713  C 4.716265054704619 9.500498706545713  7.916858956890547 9.500498706545713  7.916858956890547 9.500498706545713  C 7.916858956890547 9.500498706545713  8.148226918560276 9.586076096343728  8.26391089939514 9.414933851886076  C 8.379594880230005 9.243791607428424  10.346222554422766 7.703473801894415  10.886084897406732 7.190034533383052  C 11.001768878241597 7.0188797537870204  10.886084897406732 6.719377692201547  10.886084897406732 6.719377692201547  C 10.886084897406732 6.719377692201547  10.461917832521387 5.906436362104712  9.45931956619795 6.719377692201547  C 8.803773242379107 7.3183943505109  7.839743834509807 8.088553253277905  7.839743834509807 8.088553253277905  C 7.839743834509807 8.088553253277905  5.911685018771172 8.088553253277905  5.911685018771172 8.088553253277905  C 5.911685018771172 8.088553253277905  5.217581133761971 7.575113984766567  5.217581133761971 7.575113984766567  C 5.217581133761971 7.575113984766567  5.024770733282599 7.403971740308915  5.217581133761971 7.403971740308915  C 5.757432179482182 7.3183943505109  6.374420942110643 7.190034533383052  6.721472884615249 7.104457143585037  C 7.068524827119843 7.0188922889254  7.261323930335459 6.719377692201547  7.261323930335459 6.334298240818031  C 7.261323930335459 5.820858972306695  6.721472884615249 5.735294117647058  6.721472884615249 5.735294117647058  C 6.721472884615249 5.735294117647058  3.675131821718324 5.735294117647058  3.675131821718324 5.735294117647058  C 3.675131821718324 5.735294117647058  3.559447840883447 5.735294117647058  3.405195001594457 5.906436362104712  C 3.2895110207595923 6.034796179232533  1.5156937470462157 7.70347380189439  1.3614409077572134 7.874616046352042  C 1.2457569269223612 8.045758290809694  1.3614409077572134 8.259695497735557  1.4385673274017083 8.259695497735557  Z M 9.625 2.9314750015701083  C 9.625 2.4441649281899993  9.304476582265226 2.0491220603936373  8.909090909090914 2.0491220603936373  C 8.909090909090914 2.0491220603936373  5.090909090909086 2.0491220603936373  5.090909090909086 2.0491220603936373  C 4.695523417734774 2.0491220603936373  4.375 2.4441649281899993  4.375 2.9314750015701083  C 4.375 3.4187850749502164  4.695523417734774 3.813827942746579  5.090909090909086 3.813827942746579  C 5.090909090909086 3.813827942746579  8.909090909090914 3.813827942746579  8.909090909090914 3.813827942746579  C 9.304476582265226 3.813827942746579  9.625 3.4187850749502164  9.625 2.9314750015701083  Z " fill-rule="evenodd" />
    </mask>
  </defs>
  <g transform="matrix(1 0 0 1 -25 -85 )">
    <path d="M 0 12.99999999999999  C 0 12.99999999999999  0 2.0000000000000364  0 2.0000000000000364  C 0 0.8954305003384424  0.794326616476102 0  1.7741781549230478 0  C 1.7741781549230478 0  12.225821845076927 0  12.225821845076927 0  C 13.20567338352386 0  13.999999999999988 0.8954305003384424  13.999999999999988 2.0000000000000364  C 13.999999999999988 2.0000000000000364  14 12.99999999999999  14 12.99999999999999  C 14 14.104569499661583  13.205673383523873 15  12.22582184507694 15  C 12.22582184507694 15  1.7741781549230726 15  1.7741781549230726 15  C 0.7943266164761269 15  0 14.104569499661583  0 12.99999999999999  Z M 1.4385673274017083 8.259695497735557  C 1.4385673274017083 8.259695497735557  2.865332658610491 10.013950510195428  2.865332658610491 10.013950510195428  C 2.865332658610491 10.013950510195428  2.9810166394453557 10.313452571780928  3.328057284686219 10.013937975057047  C 3.328057284686219 10.013937975057047  3.4437412655210835 9.971155547727218  3.4437412655210835 9.971155547727218  C 3.7907932080256774 9.671653486141743  4.253529131365148 9.500498706545713  4.716265054704619 9.500498706545713  C 4.716265054704619 9.500498706545713  7.916858956890547 9.500498706545713  7.916858956890547 9.500498706545713  C 7.916858956890547 9.500498706545713  8.148226918560276 9.586076096343728  8.26391089939514 9.414933851886076  C 8.379594880230005 9.243791607428424  10.346222554422766 7.703473801894415  10.886084897406732 7.190034533383052  C 11.001768878241597 7.0188797537870204  10.886084897406732 6.719377692201547  10.886084897406732 6.719377692201547  C 10.886084897406732 6.719377692201547  10.461917832521387 5.906436362104712  9.45931956619795 6.719377692201547  C 8.803773242379107 7.3183943505109  7.839743834509807 8.088553253277905  7.839743834509807 8.088553253277905  C 7.839743834509807 8.088553253277905  5.911685018771172 8.088553253277905  5.911685018771172 8.088553253277905  C 5.911685018771172 8.088553253277905  5.217581133761971 7.575113984766567  5.217581133761971 7.575113984766567  C 5.217581133761971 7.575113984766567  5.024770733282599 7.403971740308915  5.217581133761971 7.403971740308915  C 5.757432179482182 7.3183943505109  6.374420942110643 7.190034533383052  6.721472884615249 7.104457143585037  C 7.068524827119843 7.0188922889254  7.261323930335459 6.719377692201547  7.261323930335459 6.334298240818031  C 7.261323930335459 5.820858972306695  6.721472884615249 5.735294117647058  6.721472884615249 5.735294117647058  C 6.721472884615249 5.735294117647058  3.675131821718324 5.735294117647058  3.675131821718324 5.735294117647058  C 3.675131821718324 5.735294117647058  3.559447840883447 5.735294117647058  3.405195001594457 5.906436362104712  C 3.2895110207595923 6.034796179232533  1.5156937470462157 7.70347380189439  1.3614409077572134 7.874616046352042  C 1.2457569269223612 8.045758290809694  1.3614409077572134 8.259695497735557  1.4385673274017083 8.259695497735557  Z M 9.625 2.9314750015701083  C 9.625 2.4441649281899993  9.304476582265226 2.0491220603936373  8.909090909090914 2.0491220603936373  C 8.909090909090914 2.0491220603936373  5.090909090909086 2.0491220603936373  5.090909090909086 2.0491220603936373  C 4.695523417734774 2.0491220603936373  4.375 2.4441649281899993  4.375 2.9314750015701083  C 4.375 3.4187850749502164  4.695523417734774 3.813827942746579  5.090909090909086 3.813827942746579  C 5.090909090909086 3.813827942746579  8.909090909090914 3.813827942746579  8.909090909090914 3.813827942746579  C 9.304476582265226 3.813827942746579  9.625 3.4187850749502164  9.625 2.9314750015701083  Z " fill-rule="nonzero" fill="rgba(190, 190, 190, 1)" stroke="none" transform="matrix(1 0 0 1 25 85 )" class="fill" />
    <path d="M 0 12.99999999999999  C 0 12.99999999999999  0 2.0000000000000364  0 2.0000000000000364  C 0 0.8954305003384424  0.794326616476102 0  1.7741781549230478 0  C 1.7741781549230478 0  12.225821845076927 0  12.225821845076927 0  C 13.20567338352386 0  13.999999999999988 0.8954305003384424  13.999999999999988 2.0000000000000364  C 13.999999999999988 2.0000000000000364  14 12.99999999999999  14 12.99999999999999  C 14 14.104569499661583  13.205673383523873 15  12.22582184507694 15  C 12.22582184507694 15  1.7741781549230726 15  1.7741781549230726 15  C 0.7943266164761269 15  0 14.104569499661583  0 12.99999999999999  Z " stroke-width="0" stroke-dasharray="0" stroke="rgba(232, 234, 237, 1)" fill="none" transform="matrix(1 0 0 1 25 85 )" class="stroke" mask="url(#u50_img_cl3463)" />
    <path d="M 1.4385673274017083 8.259695497735557  C 1.4385673274017083 8.259695497735557  2.865332658610491 10.013950510195428  2.865332658610491 10.013950510195428  C 2.865332658610491 10.013950510195428  2.9810166394453557 10.313452571780928  3.328057284686219 10.013937975057047  C 3.328057284686219 10.013937975057047  3.4437412655210835 9.971155547727218  3.4437412655210835 9.971155547727218  C 3.7907932080256774 9.671653486141743  4.253529131365148 9.500498706545713  4.716265054704619 9.500498706545713  C 4.716265054704619 9.500498706545713  7.916858956890547 9.500498706545713  7.916858956890547 9.500498706545713  C 7.916858956890547 9.500498706545713  8.148226918560276 9.586076096343728  8.26391089939514 9.414933851886076  C 8.379594880230005 9.243791607428424  10.346222554422766 7.703473801894415  10.886084897406732 7.190034533383052  C 11.001768878241597 7.0188797537870204  10.886084897406732 6.719377692201547  10.886084897406732 6.719377692201547  C 10.886084897406732 6.719377692201547  10.461917832521387 5.906436362104712  9.45931956619795 6.719377692201547  C 8.803773242379107 7.3183943505109  7.839743834509807 8.088553253277905  7.839743834509807 8.088553253277905  C 7.839743834509807 8.088553253277905  5.911685018771172 8.088553253277905  5.911685018771172 8.088553253277905  C 5.911685018771172 8.088553253277905  5.217581133761971 7.575113984766567  5.217581133761971 7.575113984766567  C 5.217581133761971 7.575113984766567  5.024770733282599 7.403971740308915  5.217581133761971 7.403971740308915  C 5.757432179482182 7.3183943505109  6.374420942110643 7.190034533383052  6.721472884615249 7.104457143585037  C 7.068524827119843 7.0188922889254  7.261323930335459 6.719377692201547  7.261323930335459 6.334298240818031  C 7.261323930335459 5.820858972306695  6.721472884615249 5.735294117647058  6.721472884615249 5.735294117647058  C 6.721472884615249 5.735294117647058  3.675131821718324 5.735294117647058  3.675131821718324 5.735294117647058  C 3.675131821718324 5.735294117647058  3.559447840883447 5.735294117647058  3.405195001594457 5.906436362104712  C 3.2895110207595923 6.034796179232533  1.5156937470462157 7.70347380189439  1.3614409077572134 7.874616046352042  C 1.2457569269223612 8.045758290809694  1.3614409077572134 8.259695497735557  1.4385673274017083 8.259695497735557  Z " stroke-width="0" stroke-dasharray="0" stroke="rgba(232, 234, 237, 1)" fill="none" transform="matrix(1 0 0 1 25 85 )" class="stroke" mask="url(#u50_img_cl3463)" />
    <path d="M 9.625 2.9314750015701083  C 9.625 2.4441649281899993  9.304476582265226 2.0491220603936373  8.909090909090914 2.0491220603936373  C 8.909090909090914 2.0491220603936373  5.090909090909086 2.0491220603936373  5.090909090909086 2.0491220603936373  C 4.695523417734774 2.0491220603936373  4.375 2.4441649281899993  4.375 2.9314750015701083  C 4.375 3.4187850749502164  4.695523417734774 3.813827942746579  5.090909090909086 3.813827942746579  C 5.090909090909086 3.813827942746579  8.909090909090914 3.813827942746579  8.909090909090914 3.813827942746579  C 9.304476582265226 3.813827942746579  9.625 3.4187850749502164  9.625 2.9314750015701083  Z " stroke-width="0" stroke-dasharray="0" stroke="rgba(232, 234, 237, 1)" fill="none" transform="matrix(1 0 0 1 25 85 )" class="stroke" mask="url(#u50_img_cl3463)" />
  </g>
                    </svg>